<svg width="24" height="24" viewBox="0 0 24 24" fill="none" xmlns="http://www.w3.org/2000/svg">
  <path d="M4 7.8C4 6.11984 4 5.27976 4.32698 4.63803C4.6146 4.07354 5.07354 3.6146 5.63803 3.32698C6.27976 3 7.11984 3 8.8 3H15.2C16.8802 3 17.7202 3 18.362 3.32698C18.9265 3.6146 19.3854 4.07354 19.673 4.63803C20 5.27976 20 6.11984 20 7.8V8H4V7.8Z" stroke="currentColor" stroke-width="2"/>
  <path d="M4 8V16.2C4 17.8802 4 18.7202 4.32698 19.362C4.6146 19.9265 5.07354 20.3854 5.63803 20.673C6.27976 21 7.11984 21 8.8 21H15.2C16.8802 21 17.7202 21 18.362 20.673C18.9265 20.3854 19.3854 19.9265 19.673 19.362C20 18.7202 20 17.8802 20 16.2V8H4Z" stroke="currentColor" stroke-width="2"/>
  <path d="M9 15L15 9" stroke="currentColor" stroke-width="2" stroke-linecap="round"/>
  <circle cx="8.5" cy="11.5" r="1.5" fill="currentColor"/>
  <circle cx="15.5" cy="13.5" r="1.5" fill="currentColor"/>
</svg>